<svg width="80" height="80" viewBox="0 0 80 80" fill="none" xmlns="http://www.w3.org/2000/svg">
<rect width="80" height="80" fill="white"/>
<rect width="80" height="80" fill="#1D9BF0"/>
<path d="M58.3363 30.5928C58.3644 30.9994 58.3644 31.4059 58.3644 31.8162C58.3644 44.3177 48.8473 58.7358 31.4448 58.7358V58.7283C26.304 58.7358 21.2701 57.2633 16.9424 54.4868C17.6899 54.5768 18.4411 54.6217 19.1943 54.6236C23.4545 54.6273 27.593 53.1979 30.9446 50.5657C26.896 50.4889 23.3458 47.8492 22.1056 43.9955C23.5238 44.269 24.9851 44.2128 26.3771 43.8325C21.9632 42.9407 18.7877 39.0627 18.7877 34.5589C18.7877 34.5177 18.7877 34.4784 18.7877 34.439C20.1029 35.1715 21.5754 35.5781 23.0817 35.623C18.9245 32.8447 17.6431 27.3143 20.1535 22.9903C24.957 28.9011 32.0443 32.4944 39.6524 32.8747C38.8899 29.5886 39.9315 26.1452 42.3895 23.8353C46.2001 20.2532 52.1933 20.4368 55.7753 24.2456C57.8942 23.8278 59.925 23.0503 61.7835 21.9487C61.0772 24.1388 59.599 25.9991 57.6244 27.1813C59.4997 26.9602 61.332 26.4581 63.0574 25.6919C61.7872 27.5953 60.1873 29.2533 58.3363 30.5928Z" fill="white"/>
</svg>
