<svg width="80" height="80" viewBox="0 0 80 80" fill="none" xmlns="http://www.w3.org/2000/svg">
<rect width="80" height="80" fill="white"/>
<rect width="80" height="80" fill="#FF0000"/>
<path d="M62.5493 28.5979C62.008 26.5598 60.4133 24.9546 58.388 24.4099C54.7178 23.4199 39.9997 23.4199 39.9997 23.4199C39.9997 23.4199 25.2818 23.4199 21.6115 24.4099C19.5862 24.9546 17.9911 26.5598 17.4502 28.5979C16.4668 32.2921 16.4668 40.0001 16.4668 40.0001C16.4668 40.0001 16.4668 47.7076 17.4502 51.4022C17.9911 53.4405 19.5862 55.0453 21.6113 55.5906C25.2816 56.5802 39.9995 56.5802 39.9995 56.5802C39.9995 56.5802 54.7176 56.5802 58.3878 55.5906C60.4131 55.0455 62.0078 53.4405 62.5491 51.4024C63.5327 47.7078 63.5327 40.0003 63.5327 40.0003C63.5327 40.0003 63.5327 32.2923 62.5491 28.5981" fill="white"/>
<path d="M35.1865 46.9982L47.4878 40.0005L35.1865 33.002V46.9982Z" fill="#FF0000"/>
</svg>
